<svg xmlns="http://www.w3.org/2000/svg" viewBox="0 0 1812 514" width="1812" height="514">
  <defs>
    <linearGradient id="g" x1="0" y1="0" x2="1" y2="1">
      <stop offset="0%" stop-color="#ff1040"/>
      <stop offset="100%" stop-color="#990020"/>
    </linearGradient>
  </defs>
  <g transform="translate(0,514) scale(0.1,-0.1)" fill="url(#g)" stroke="none">
    <path d="M1023 5022 c-156 -2 -163 -3 -177 -25 -20 -32 -74 -195 -167 -507
-45 -151 -116 -381 -159 -510 -115 -348 -164 -509 -205 -665 -21 -77 -53 -187
-72 -243 -21 -63 -32 -107 -26 -113 15 -15 105 -18 400 -12 l281 6 26 66 c14
36 39 113 56 171 17 58 46 152 65 210 19 58 43 134 54 170 10 36 33 112 50
170 18 58 61 197 96 310 35 113 78 252 95 308 18 57 40 112 51 123 18 18 43
19 701 19 673 0 682 0 725 -21 58 -28 83 -76 83 -162 0 -84 -18 -125 -85 -191
-85 -86 -89 -86 -563 -93 l-403 -6 -183 -186 c-331 -338 -319 -323 -273 -335
12 -3 219 -6 460 -6 l437 0 9 -22 c5 -13 16 -54 25 -93 9 -38 34 -137 56 -220
22 -82 40 -160 40 -171 0 -43 11 -45 381 -45 195 0 364 1 377 1 30 0 29 12
-19 197 -23 87 -54 211 -70 276 -15 66 -30 121 -33 124 -14 14 21 46 86 79
129 65 268 185 324 281 47 80 186 535 200 654 12 100 -35 236 -103 300 -115
108 -229 147 -453 154 -168 6 -1847 11 -2087 7z"/>
<path d="M4200 4998 c-5 -13 -21 -63 -35 -113 -15 -49 -35 -115 -45 -145 -10
-30 -28 -91 -40 -135 -13 -44 -35 -120 -51 -170 -53 -172 -101 -345 -120 -425
-6 -30 -64 -210 -127 -400 -162 -488 -206 -635 -197 -651 4 -5 467 -9 1198 -9
l1192 0 248 244 c136 133 247 248 247 253 0 6 -7 14 -16 17 -9 3 -462 6 -1009
6 -887 0 -994 2 -1005 16 -11 13 -9 29 13 94 15 44 27 86 27 94 0 8 10 22 22
30 20 14 117 16 848 16 l826 0 65 54 c123 103 454 435 443 446 -6 6 -330 10
-929 10 l-918 0 -36 -25 c-20 -14 -61 -45 -91 -70 -30 -24 -61 -44 -67 -45
-19 0 -16 33 11 113 13 40 36 117 51 172 15 55 32 106 37 113 8 9 223 12 1013
12 790 0 1005 3 1013 13 11 14 19 39 72 222 22 77 49 166 60 198 16 46 18 62
9 73 -10 12 -214 14 -1355 14 l-1344 0 -10 -22z"/>
<path d="M7321 4998 c-15 -38 -118 -380 -131 -433 -7 -27 -15 -59 -19 -70 -8
-21 -35 -107 -72 -230 -11 -38 -35 -113 -54 -165 -18 -52 -40 -117 -48 -145
-8 -27 -42 -135 -76 -240 -33 -104 -79 -255 -101 -335 -23 -80 -61 -202 -86
-271 -49 -142 -50 -145 -29 -153 30 -11 666 -9 678 3 11 11 47 121 116 351 67
222 92 302 136 445 49 155 81 261 132 440 55 191 84 279 97 292 9 10 165 13
696 14 744 1 725 3 778 -54 27 -29 43 -88 35 -131 -8 -51 -58 -211 -173 -566
-105 -324 -164 -510 -194 -615 -9 -27 -22 -74 -31 -103 -9 -29 -14 -59 -11
-67 8 -21 667 -22 688 -2 7 8 24 52 37 98 32 114 73 251 137 454 29 94 60 199
69 235 9 36 36 127 61 202 24 75 44 143 44 151 0 8 16 66 36 128 66 212 74
249 74 353 0 142 -24 209 -100 279 -98 91 -203 130 -393 147 -56 5 -594 9
-1195 10 l-1092 0 -9 -22z"/>
<path d="M10761 4878 c-81 -79 -195 -190 -254 -247 -59 -57 -107 -107 -107
-111 0 -15 180 -21 575 -17 226 2 420 1 433 -1 31 -6 29 -34 -12 -161 -59
-182 -141 -445 -231 -736 -47 -154 -94 -307 -104 -340 -58 -184 -83 -287 -73
-297 12 -12 611 -25 654 -15 21 6 28 18 43 69 34 126 96 333 105 353 4 11 16
52 26 90 9 39 21 77 25 86 9 17 110 357 156 524 30 108 107 360 121 396 10 24
16 27 89 33 43 3 203 6 356 5 l278 -1 92 85 c51 47 135 127 188 179 53 51 129
123 169 161 40 37 70 71 66 75 -4 4 -557 8 -1228 10 l-1221 2 -146 -142z"/>
<path d="M1849 2268 c-14 -12 -101 -109 -199 -224 -19 -22 -73 -85 -121 -140
-47 -54 -123 -146 -169 -204 -46 -58 -108 -131 -137 -163 -29 -32 -102 -117
-161 -191 -60 -73 -120 -144 -133 -157 -13 -14 -58 -67 -99 -119 -41 -51 -104
-125 -138 -164 -35 -39 -85 -98 -110 -131 -26 -33 -83 -103 -127 -156 -44 -53
-125 -153 -180 -224 -55 -70 -117 -146 -137 -169 -21 -23 -38 -49 -38 -59 0
-16 44 -17 873 -15 l874 3 84 72 c46 39 157 146 247 237 97 98 171 166 182
166 25 0 34 -19 53 -110 9 -41 28 -129 41 -195 14 -66 31 -132 37 -147 l11
-28 393 0 c306 0 394 3 398 13 5 15 -17 115 -88 402 -106 432 -173 711 -179
745 -8 44 -18 84 -54 235 -16 66 -37 158 -47 205 -17 81 -33 148 -95 398 -15
62 -31 116 -35 120 -3 4 -214 8 -468 10 -365 2 -466 0 -478 -10z m324 -675 c9
-32 21 -80 27 -108 10 -53 64 -314 125 -604 19 -96 32 -178 27 -183 -13 -13
-995 -5 -999 8 -2 7 27 48 64 92 37 43 116 137 174 208 153 186 272 328 278
334 3 3 35 41 71 85 100 125 192 225 205 225 7 0 20 -26 28 -57z"/>
<path d="M4727 2270 l-118 -5 -49 -145 c-129 -386 -203 -627 -275 -895 -15
-55 -40 -143 -57 -195 -16 -52 -41 -133 -55 -180 -14 -47 -45 -146 -69 -220
-84 -266 -126 -406 -131 -443 l-5 -37 341 0 340 0 14 28 c7 15 30 79 50 142
20 63 61 192 91 285 48 150 148 480 237 780 70 236 91 301 98 315 4 8 23 18
42 22 19 4 216 7 439 8 332 0 409 -2 425 -14 18 -13 18 -17 -17 -127 -140
-446 -179 -572 -245 -794 -40 -137 -85 -293 -99 -345 -14 -52 -39 -134 -56
-182 -16 -49 -28 -95 -24 -103 5 -13 52 -15 349 -15 l345 0 9 27 c6 16 18 51
28 78 10 28 30 97 45 155 16 58 42 146 58 195 17 50 40 128 52 175 12 47 46
162 75 255 29 94 72 238 95 320 23 83 52 177 65 210 12 33 25 76 29 96 3 21
13 43 22 50 18 15 707 22 764 8 20 -5 49 -23 65 -40 51 -52 40 -116 -90 -534
-24 -77 -64 -207 -89 -290 -25 -82 -65 -208 -89 -280 -56 -161 -127 -388 -127
-402 0 -6 7 -14 16 -17 9 -3 163 -6 344 -6 250 0 330 3 337 13 20 25 193 594
359 1182 25 88 56 194 69 235 72 227 80 315 37 412 -31 71 -126 159 -224 207
-157 78 -41 73 -1763 75 -847 1 -1593 -1 -1658 -4z"/>
<path d="M9675 2269 c-280 -7 -342 -22 -539 -122 -132 -68 -265 -194 -318
-302 -37 -75 -66 -164 -173 -535 -20 -69 -61 -201 -91 -295 -30 -93 -60 -188
-66 -210 -6 -22 -20 -67 -32 -100 -15 -44 -20 -86 -21 -155 0 -84 3 -101 27
-147 35 -65 58 -90 133 -139 75 -50 118 -68 222 -94 80 -20 99 -21 985 -17
800 3 911 5 972 20 197 48 391 155 493 274 58 67 82 111 112 208 12 39 30 97
41 130 35 112 91 296 140 463 27 92 62 205 78 252 36 101 72 284 72 363 0 112
-63 230 -155 291 -30 21 -81 49 -113 63 -119 53 -135 54 -862 56 -371 2 -778
0 -905 -4z m1229 -558 c87 -38 94 -95 33 -286 -74 -236 -128 -412 -138 -450
-20 -80 -62 -178 -93 -213 -17 -19 -51 -44 -76 -56 -44 -19 -61 -20 -685 -17
-598 2 -643 3 -682 21 -48 21 -73 61 -73 117 0 44 133 497 217 741 17 48 70
107 111 124 85 34 124 36 734 37 579 1 608 0 652 -18z"/>
<path d="M12345 2108 c-252 -240 -366 -358 -360 -369 4 -6 198 -9 522 -9 347
1 520 -3 527 -10 7 -7 -4 -53 -37 -153 -26 -78 -68 -212 -93 -297 -25 -85 -70
-234 -100 -330 -96 -303 -195 -613 -215 -671 -23 -66 -24 -93 -5 -108 16 -13
587 -14 635 -1 33 8 53 49 91 189 16 60 56 192 89 293 75 233 151 481 162 533
9 37 18 66 39 120 15 40 32 98 50 168 22 85 77 238 91 252 6 6 144 12 352 15
201 3 349 9 359 15 30 19 527 513 521 519 -4 3 -558 6 -1232 6 l-1226 0 -170
-162z"/>
<path d="M15835 2264 c-11 -2 -45 -9 -75 -15 -30 -6 -68 -16 -85 -23 -16 -7
-73 -30 -125 -50 -171 -65 -336 -197 -402 -319 -26 -47 -103 -294 -142 -453
-19 -76 -46 -173 -60 -214 -14 -41 -40 -120 -57 -175 -117 -377 -135 -468
-105 -539 9 -21 16 -46 16 -56 0 -27 52 -97 96 -129 78 -58 162 -99 240 -117
75 -18 126 -19 959 -16 515 2 903 7 935 13 118 21 283 77 357 121 65 40 223
200 252 256 31 60 136 381 166 506 14 57 32 120 40 140 29 69 145 457 166 551
14 69 10 168 -10 227 -19 55 -74 138 -114 171 -37 30 -117 68 -201 95 l-81 26
-875 2 c-481 1 -884 0 -895 -2z m1351 -530 c16 -3 44 -18 62 -33 30 -24 34
-34 38 -86 4 -39 0 -79 -11 -115 -9 -30 -24 -86 -34 -125 -10 -38 -31 -106
-46 -150 -15 -44 -40 -127 -55 -185 -49 -185 -102 -280 -180 -320 -73 -37
-127 -40 -702 -40 -616 0 -668 4 -718 50 -46 43 -45 91 6 261 18 64 34 121 34
127 0 6 11 35 24 64 20 45 46 135 107 370 16 64 79 122 169 159 28 11 142 15
580 19 300 3 579 6 621 8 42 1 89 -1 105 -4z"/>
  </g>
</svg>