<svg xmlns="http://www.w3.org/2000/svg" viewBox="0 0 1536 1024" width="1536" height="1024">
  <g transform="translate(0,1024) scale(0.1,-0.1)" fill="#ffffff" stroke="none">
    <path d="M0 5120 l0 -5120 7680 0 7680 0 0 5120 0 5120 -7680 0 -7680 0 0
-5120z m9754 3311 c-5 -5 -64 -58 -131 -118 -158 -140 -531 -487 -532 -493 0
-3 70 -35 157 -72 86 -37 254 -108 372 -159 291 -124 321 -135 473 -168 332
-74 760 -146 1202 -201 807 -101 832 -104 785 -112 -315 -56 -757 -155 -995
-222 -147 -42 -506 -153 -666 -206 -100 -33 -193 -60 -205 -60 -12 0 -60 9
-106 20 -69 16 -246 44 -484 75 l-41 6 -7 -78 c-21 -245 -118 -305 -551 -343
-357 -31 -824 -59 -990 -61 -55 0 -117 -3 -139 -7 -43 -8 -34 6 -211 -322 -43
-80 -89 -160 -101 -179 -13 -19 -20 -39 -17 -44 3 -5 51 -31 107 -57 56 -26
146 -69 201 -95 270 -129 377 -176 583 -256 85 -34 75 -36 234 54 117 66 208
97 286 97 99 0 157 -31 195 -105 19 -38 20 -51 14 -267 l-6 -228 27 -14 c60
-30 367 -111 707 -187 l220 -49 -150 4 c-82 3 -364 16 -625 30 -639 33 -1025
45 -1920 56 -415 5 -949 12 -1187 16 l-432 7 98 121 c54 66 110 135 125 151
29 34 34 50 11 41 -9 -3 -111 -22 -228 -41 -117 -19 -248 -42 -292 -50 -44 -8
-109 -20 -145 -25 -36 -6 -110 -19 -165 -30 -55 -10 -163 -31 -240 -45 -77
-14 -183 -34 -235 -44 -52 -11 -138 -27 -190 -36 -52 -9 -189 -34 -305 -56
-115 -22 -248 -46 -295 -55 -47 -8 -103 -19 -125 -24 -72 -16 -338 -61 -341
-57 -11 11 541 578 896 921 269 260 290 284 290 337 0 73 50 306 90 424 23 66
71 189 107 273 38 88 62 157 57 162 -5 4 -47 20 -94 33 -136 41 -482 136 -517
143 -18 4 -30 10 -28 15 12 18 334 132 945 334 157 52 317 104 355 115 39 12
95 30 125 40 30 10 145 46 255 80 400 122 892 284 904 296 3 4 -3 4 -14 1 -11
-4 -110 -22 -220 -41 -185 -32 -641 -113 -965 -172 -74 -13 -167 -29 -205 -35
l-71 -12 -169 68 c-201 79 -377 156 -372 162 19 19 688 138 947 168 233 27
258 33 360 84 425 215 863 307 1298 272 141 -11 230 -27 310 -55 39 -14 55
-13 199 10 162 25 377 58 493 75 36 5 90 14 120 19 30 6 138 23 240 40 102 16
268 43 370 59 102 17 266 42 365 57 99 14 182 28 184 30 2 2 7 2 10 -1 2 -3 0
-9 -5 -14z m-4521 -3907 c111 -24 187 -86 187 -152 0 -69 -87 -160 -281 -291
-172 -117 -349 -251 -447 -338 -80 -71 -83 -73 -135 -72 -63 1 -103 22 -128
69 -36 67 -23 107 69 202 63 66 99 92 419 302 56 36 105 71 108 76 4 7 -9 8
-37 4 -218 -31 -677 -207 -1003 -383 -181 -98 -271 -169 -282 -222 -5 -26 -2
-31 30 -44 43 -18 131 -30 327 -45 409 -31 554 -92 568 -239 12 -129 -74 -285
-255 -464 -113 -111 -212 -181 -361 -256 -205 -102 -368 -148 -562 -158 -363
-17 -596 165 -488 381 66 131 277 260 503 308 83 17 380 36 345 22 -189 -79
-281 -137 -401 -251 -144 -138 -152 -224 -23 -239 164 -20 525 179 728 400 87
95 107 123 125 179 16 47 8 82 -23 102 -13 9 -66 22 -117 29 -85 13 -138 18
-324 31 -219 16 -329 52 -422 138 -24 22 -51 53 -59 68 -18 35 -18 110 0 152
63 149 383 339 871 519 208 77 548 168 705 188 88 12 276 3 363 -16z m2151
-344 c38 -14 52 -51 35 -92 -25 -61 -222 -292 -509 -600 -210 -224 -399 -453
-385 -466 7 -8 91 64 190 163 195 195 409 340 561 380 74 19 186 19 251 0 70
-21 123 -79 123 -135 0 -88 -77 -185 -207 -261 -57 -34 -196 -88 -308 -121
l-80 -24 -3 -37 c-5 -54 23 -128 61 -165 49 -47 142 -99 192 -106 25 -4 45
-11 45 -15 0 -14 -193 -36 -305 -35 -119 1 -174 15 -232 60 -18 14 -40 38 -48
54 -19 36 -19 113 -1 173 9 31 10 45 3 40 -11 -7 -145 -111 -247 -192 -102
-81 -175 -99 -249 -61 -115 58 -128 171 -40 327 52 91 227 324 285 378 5 6 35
39 64 75 30 36 110 125 178 198 68 74 122 135 120 136 -7 7 -827 -29 -1130
-50 -181 -12 -89 25 327 132 347 89 499 124 755 173 413 79 503 91 554 71z
m2126 -45 c47 -43 33 -97 -51 -197 -32 -39 -59 -75 -59 -81 0 -7 49 -8 148 -4
81 4 253 8 382 8 317 3 309 1 351 54 44 55 77 75 128 75 79 0 118 -40 92 -96
l-11 -24 158 0 c486 -1 625 -29 660 -135 7 -22 14 -40 15 -42 2 -1 52 11 112
27 198 53 420 74 534 49 87 -18 115 -79 65 -139 -28 -33 -113 -94 -179 -128
-22 -11 -83 -57 -135 -101 -108 -92 -152 -111 -200 -86 -59 30 -66 85 -17 132
27 27 186 144 243 180 37 23 -48 14 -159 -17 -106 -30 -361 -147 -560 -257
-155 -87 -162 -83 158 -83 312 0 384 -9 463 -58 64 -39 87 -83 78 -147 -7 -45
-15 -57 -79 -121 -176 -173 -508 -292 -732 -264 -96 12 -151 41 -178 93 -17
34 -18 43 -8 79 15 47 78 120 135 153 94 55 234 105 323 115 156 18 158 14 32
-61 -137 -80 -229 -173 -229 -228 0 -16 68 -13 131 5 65 19 186 81 251 129
108 79 160 183 102 205 -28 11 -382 12 -533 1 l-95 -6 -34 -60 c-19 -33 -72
-96 -117 -140 -140 -138 -266 -196 -430 -198 -76 0 -98 3 -140 24 -55 27 -101
84 -114 141 -31 136 103 374 284 503 83 59 196 112 270 126 33 6 101 9 152 7
97 -5 123 -16 169 -66 l23 -24 54 35 c30 20 98 57 151 83 l97 48 -36 17 c-90
44 -165 52 -470 52 -159 0 -299 -3 -310 -7 -11 -4 -49 -45 -85 -92 -36 -47
-87 -113 -113 -147 -90 -114 -226 -324 -274 -423 -68 -138 -83 -182 -83 -241
0 -63 13 -99 48 -135 l26 -28 -50 0 c-62 0 -155 22 -189 44 -59 39 -77 106
-54 204 28 121 233 486 378 672 23 30 58 76 77 102 19 26 40 49 47 52 16 8
-263 -1 -488 -15 -176 -11 -181 -11 -240 10 -33 13 -67 25 -76 28 -26 8 -254
-243 -377 -417 -80 -113 -124 -184 -170 -276 -68 -138 -87 -203 -87 -300 0
-73 3 -84 28 -117 15 -20 24 -37 20 -37 -4 0 -44 9 -88 20 -129 33 -187 83
-206 183 -15 74 4 156 64 282 44 91 177 297 225 348 36 38 22 34 -24 -8 -22
-19 -42 -35 -45 -35 -11 0 -244 -260 -334 -372 -78 -98 -89 -108 -119 -108
-55 0 -137 49 -173 104 -31 45 -33 54 -33 130 0 70 23 206 45 271 14 40 -150
-253 -206 -370 -80 -165 -119 -286 -119 -368 0 -103 -21 -97 353 -98 177 0
351 -2 387 -4 36 -2 265 -6 510 -10 245 -3 623 -10 840 -15 217 -5 541 -12
720 -16 179 -4 331 -10 339 -14 8 -4 -152 -10 -355 -14 -203 -3 -484 -8 -624
-11 -140 -3 -419 -7 -620 -10 -349 -5 -658 -13 -1440 -35 -927 -27 -1442 -43
-2030 -62 -212 -7 -506 -13 -655 -13 -304 0 -343 6 -490 74 -99 46 -151 91
-181 156 -48 102 -26 219 77 413 90 170 172 286 278 393 155 154 299 238 411
239 62 0 114 -25 131 -64 18 -39 -11 -82 -145 -213 -184 -180 -241 -252 -313
-395 -47 -94 -73 -173 -73 -221 0 -50 42 -93 121 -122 52 -19 84 -20 724 -22
369 -1 711 -4 760 -7 145 -7 1267 -27 1272 -22 2 2 -19 9 -49 15 -72 16 -144
64 -171 115 -30 57 -29 176 3 266 52 149 182 389 333 615 179 270 320 440 390
474 58 28 163 33 200 8 39 -25 35 -61 -19 -208 -62 -165 -132 -437 -149 -574
-4 -27 -9 -59 -11 -70 -4 -17 -2 -17 16 5 129 149 227 241 566 530 181 155
412 339 465 373 78 48 174 53 219 12z m-4036 -346 c101 -53 59 -129 -70 -129
-73 0 -127 20 -150 56 -16 24 -16 26 5 47 12 12 36 28 54 34 36 14 127 9 161
-8z m817 -162 c59 -31 109 -91 109 -134 0 -70 -80 -143 -219 -200 -109 -45
-126 -41 -65 18 45 42 94 116 94 142 0 89 -228 42 -441 -89 -212 -131 -423
-349 -445 -460 -20 -101 193 -96 412 10 136 65 225 128 307 217 41 43 81 79
90 79 28 0 57 -37 57 -72 -1 -120 -187 -280 -455 -393 -63 -26 -242 -63 -341
-71 -204 -15 -358 60 -379 185 -20 123 119 346 313 499 191 151 380 240 622
291 25 6 99 9 165 8 110 -2 125 -4 176 -30z m3384 -66 c22 -10 55 -34 73 -55
28 -32 32 -44 32 -91 0 -238 -344 -626 -601 -679 -173 -35 -318 42 -334 177
-20 167 186 445 433 583 142 80 306 107 397 65z m2266 -708 c70 -41 79 -155
18 -212 -82 -77 -229 -18 -229 92 0 54 17 86 59 114 41 28 110 31 152 6z"/>
    <path d="M8760 7999 c-274 -105 -1191 -416 -1755 -594 -115 -37 -361 -115
-545 -175 -184 -60 -441 -141 -570 -180 -129 -40 -243 -76 -252 -81 -9 -5 -28
-10 -42 -11 -15 -1 -26 -5 -26 -8 0 -7 234 -68 442 -115 176 -39 269 -43 548
-25 80 5 248 16 374 25 126 8 231 13 233 11 2 -2 -38 -18 -89 -36 -51 -17
-127 -45 -168 -60 -41 -16 -149 -56 -240 -91 -91 -34 -223 -84 -295 -111 -71
-28 -184 -69 -250 -93 -140 -50 -546 -210 -590 -232 -16 -9 -64 -45 -105 -80
-72 -62 -1060 -1057 -1060 -1067 0 -3 46 18 103 45 308 153 463 226 657 308
118 51 235 100 260 111 25 11 115 47 200 80 85 33 175 69 200 80 25 10 178 71
340 135 387 153 747 298 996 400 260 108 505 208 624 255 52 21 199 80 325
132 127 52 280 113 340 137 61 23 148 58 195 77 47 18 91 34 98 34 7 0 12 4
12 8 0 8 -60 23 -375 92 -336 74 -557 124 -752 172 l-212 52 32 21 c18 12 77
46 132 75 55 29 116 62 135 73 19 11 82 45 140 75 92 49 510 281 658 366 30
17 66 37 80 45 15 8 50 28 77 46 28 17 87 53 133 79 113 66 112 71 -8 25z"/>
    <path d="M7316 3423 c-46 -12 -147 -83 -218 -153 -43 -42 -78 -82 -78 -88 0
-15 107 25 202 75 76 40 183 134 176 155 -5 14 -50 20 -82 11z"/>
    <path d="M10638 3411 c-65 -26 -139 -82 -195 -149 -27 -31 -55 -65 -64 -75
-30 -34 -89 -159 -89 -189 0 -100 134 -64 269 71 81 82 163 207 186 285 12 40
12 48 -1 61 -20 19 -48 18 -106 -4z"/>
    <path d="M9547 3440 c-92 -28 -302 -251 -379 -403 -58 -115 -21 -156 90 -100
111 55 256 217 334 373 45 89 48 117 12 130 -14 6 -26 10 -27 9 -1 0 -15 -5
-30 -9z"/>
    <path d="M11790 2823 c-25 -22 -33 -39 -37 -76 -5 -43 -3 -49 30 -82 30 -30
41 -35 84 -35 56 0 97 30 108 80 16 75 -25 130 -103 138 -43 4 -53 1 -82 -25z
m121 -22 c23 -19 23 -21 7 -37 -17 -17 -17 -19 -1 -37 28 -30 6 -51 -56 -55
l-51 -3 0 70 c0 58 3 70 18 74 37 10 61 6 83 -12z"/>
    <path d="M11840 2775 c0 -23 4 -26 28 -23 19 2 27 9 27 23 0 14 -8 21 -27 23
-24 3 -28 0 -28 -23z"/>
    <path d="M11835 2730 c-11 -18 15 -51 38 -48 32 4 35 43 5 52 -31 8 -36 8 -43
-4z"/>
  </g>
</svg>