<svg xmlns="http://www.w3.org/2000/svg" viewBox="0 0 1536 1024" width="1536" height="1024">
  <g transform="translate(0,1024) scale(0.1,-0.1)" fill="#ffffff" stroke="none">
    <path d="M9749 8446 c-2 -2 -85 -16 -184 -30 -99 -15 -263 -40 -365 -57 -102
-16 -268 -43 -370 -59 -102 -17 -210 -34 -240 -40 -30 -5 -84 -14 -120 -19
-116 -17 -331 -50 -493 -75 -144 -23 -160 -24 -199 -10 -80 28 -169 44 -310
55 -435 35 -873 -57 -1298 -272 -102 -51 -127 -57 -360 -84 -259 -30 -928
-149 -947 -168 -5 -6 171 -83 372 -162 l169 -68 71 12 c38 6 131 22 205 35
324 59 780 140 965 172 110 19 209 37 220 41 11 3 17 3 14 -1 -12 -12 -504
-174 -904 -296 -110 -34 -225 -70 -255 -80 -30 -10 -86 -28 -125 -40 -38 -11
-198 -63 -355 -115 -611 -202 -933 -316 -945 -334 -2 -5 10 -11 28 -15 35 -7
381 -102 517 -143 47 -13 89 -29 94 -33 5 -5 -19 -74 -57 -162 -36 -84 -84
-207 -107 -273 -40 -118 -90 -351 -90 -424 0 -53 -21 -77 -290 -337 -355 -343
-907 -910 -896 -921 3 -4 269 41 341 57 22 5 78 16 125 24 47 9 180 33 295 55
116 22 253 47 305 56 52 9 138 25 190 36 52 10 158 30 235 44 77 14 185 35
240 45 55 11 129 24 165 30 36 5 101 17 145 25 44 8 175 31 292 50 117 19 219
38 228 41 23 9 18 -7 -11 -41 -15 -16 -71 -85 -125 -151 l-98 -121 432 -7
c238 -4 772 -11 1187 -16 895 -11 1281 -23 1920 -56 261 -14 543 -27 625 -30
l150 -4 -220 49 c-340 76 -647 157 -707 187 l-27 14 6 228 c6 216 5 229 -14
267 -38 74 -96 105 -195 105 -78 0 -169 -31 -286 -97 -159 -90 -149 -88 -234
-54 -206 80 -313 127 -583 256 -55 26 -145 69 -201 95 -56 26 -104 52 -107 57
-3 5 4 25 17 44 12 19 58 99 101 179 177 328 168 314 211 322 22 4 84 7 139 7
221 2 949 51 1175 80 153 20 266 71 314 142 32 47 44 90 52 182 l7 78 41 -6
c238 -31 415 -59 484 -75 46 -11 94 -20 106 -20 12 0 105 27 205 60 160 53
519 164 666 206 238 67 680 166 995 222 47 8 22 11 -785 112 -442 55 -870 127
-1202 201 -152 33 -182 44 -473 168 -118 51 -286 122 -372 159 -87 37 -157 69
-157 72 1 6 374 353 532 493 149 132 142 126 136 132 -3 3 -8 3 -10 1z m-899
-420 c0 -2 -37 -25 -82 -52 -46 -26 -105 -62 -133 -79 -27 -18 -62 -38 -77
-46 -14 -8 -50 -28 -80 -45 -148 -85 -566 -317 -658 -366 -58 -30 -121 -64
-140 -75 -19 -11 -80 -44 -135 -73 -55 -29 -114 -63 -132 -75 l-32 -21 212
-52 c195 -48 416 -98 752 -172 315 -69 375 -84 375 -92 0 -4 -5 -8 -12 -8 -7
0 -51 -16 -98 -34 -47 -19 -134 -54 -195 -77 -60 -24 -213 -85 -340 -137 -126
-52 -273 -111 -325 -132 -119 -47 -364 -147 -624 -255 -249 -102 -609 -247
-996 -400 -162 -64 -315 -125 -340 -135 -25 -11 -115 -47 -200 -80 -85 -33
-175 -69 -200 -80 -25 -11 -142 -60 -260 -111 -194 -82 -349 -155 -657 -308
-57 -27 -103 -48 -103 -45 0 10 988 1005 1060 1067 41 35 89 71 105 80 44 22
450 182 590 232 66 24 179 65 250 93 72 27 204 77 295 111 91 35 199 75 240
91 41 15 117 43 168 60 51 18 91 34 89 36 -2 2 -107 -3 -233 -11 -126 -9 -294
-20 -374 -25 -279 -18 -372 -14 -548 25 -208 47 -442 108 -442 115 0 3 11 7
26 8 14 1 33 6 42 11 9 5 123 41 252 81 129 39 386 120 570 180 184 60 430
138 545 175 564 178 1481 489 1755 594 79 30 90 34 90 27z"/>
    <path d="M4870 4540 c-292 -38 -823 -211 -1125 -365 -223 -115 -323 -181 -396
-263 -51 -58 -69 -98 -69 -157 0 -58 17 -90 73 -142 93 -86 203 -122 422 -138
186 -13 239 -18 324 -31 102 -15 137 -31 147 -69 6 -26 -10 -84 -36 -127 -32
-52 -175 -200 -245 -253 -171 -128 -338 -218 -465 -251 -105 -27 -188 -8 -206
48 -10 33 35 104 115 181 120 114 212 172 401 251 35 14 -262 -5 -345 -22
-275 -59 -499 -221 -529 -382 -10 -58 18 -133 67 -180 153 -147 472 -170 802
-58 119 40 305 134 401 202 140 99 312 284 369 396 37 72 58 157 53 211 -14
147 -159 208 -568 239 -196 15 -284 27 -327 45 -32 13 -35 18 -30 44 11 53
101 124 282 222 326 176 785 352 1003 383 28 4 41 3 37 -4 -3 -5 -52 -40 -108
-76 -320 -210 -356 -236 -419 -302 -92 -95 -105 -135 -69 -202 25 -47 65 -68
128 -69 52 -1 55 1 135 72 98 87 275 221 447 338 194 131 281 222 281 291 0
66 -76 128 -187 152 -87 19 -275 28 -363 16z"/>
    <path d="M7155 4169 c-367 -62 -659 -125 -1080 -233 -291 -75 -415 -113 -415
-128 0 -6 32 -7 88 -4 303 21 1123 57 1130 50 2 -1 -52 -62 -120 -136 -68 -73
-148 -162 -178 -198 -29 -36 -59 -69 -64 -75 -58 -54 -233 -287 -285 -378 -88
-156 -75 -269 40 -327 74 -38 147 -20 249 61 102 81 236 185 247 192 7 5 6 -9
-3 -40 -18 -60 -18 -137 1 -173 8 -16 30 -40 48 -54 58 -45 113 -59 232 -60
112 -1 305 21 305 35 0 4 -20 11 -45 15 -50 7 -143 59 -192 106 -38 37 -66
111 -61 165 l3 37 80 24 c112 33 251 87 308 121 130 76 207 173 207 261 0 56
-53 114 -123 135 -65 19 -177 19 -251 0 -152 -40 -366 -185 -561 -380 -99 -99
-183 -171 -190 -163 -14 13 175 242 385 466 287 308 484 539 509 600 11 25 11
39 3 58 -23 49 -83 54 -267 23z m243 -757 c7 -21 -100 -115 -176 -155 -95 -50
-202 -90 -202 -75 0 6 35 46 78 88 71 70 172 141 218 153 32 9 77 3 82 -11z"/>
    <path d="M9383 4160 c-56 -8 -114 -46 -294 -192 -423 -342 -677 -572 -829
-748 -18 -22 -20 -22 -16 -5 2 11 7 43 11 70 17 137 87 409 149 574 54 147 58
183 19 208 -37 25 -142 20 -200 -8 -70 -34 -211 -204 -390 -474 -151 -226
-281 -466 -333 -615 -32 -90 -33 -209 -3 -266 27 -51 99 -99 171 -115 30 -6
51 -13 49 -15 -5 -5 -1127 15 -1272 22 -49 3 -391 6 -760 7 -640 2 -672 3
-724 22 -79 29 -121 72 -121 122 0 48 26 127 73 221 72 143 129 215 313 395
134 131 163 174 145 213 -17 39 -69 64 -131 64 -112 -1 -256 -85 -411 -239
-106 -107 -188 -223 -278 -393 -103 -194 -125 -311 -77 -413 30 -65 82 -110
181 -156 147 -68 186 -74 490 -74 149 0 443 6 655 13 588 19 1103 35 2030 62
782 22 1091 30 1440 35 201 3 480 7 620 10 140 3 421 8 624 11 203 4 363 10
355 14 -8 4 -160 10 -339 14 -179 4 -503 11 -720 16 -217 5 -595 12 -840 15
-245 4 -474 8 -510 10 -36 2 -210 4 -387 4 -374 1 -353 -5 -353 98 0 82 39
203 119 368 56 117 220 410 206 370 -22 -65 -45 -201 -45 -271 0 -76 2 -85 33
-130 36 -55 118 -104 173 -104 30 0 41 10 119 108 90 112 323 372 334 372 3 0
23 16 45 35 46 42 60 46 24 8 -48 -51 -181 -257 -225 -348 -60 -126 -79 -208
-64 -282 19 -100 77 -150 206 -183 44 -11 84 -20 88 -20 4 0 -5 17 -20 37 -25
33 -28 44 -28 117 0 149 79 326 257 576 123 174 351 425 377 417 9 -3 43 -15
76 -28 59 -21 64 -21 240 -10 225 14 504 23 488 15 -7 -3 -28 -26 -47 -52 -19
-26 -54 -72 -77 -102 -145 -186 -350 -551 -378 -672 -23 -98 -5 -165 54 -204
34 -22 127 -44 189 -44 l50 0 -26 28 c-35 36 -48 72 -48 135 0 59 15 103 83
241 48 99 184 309 274 423 26 34 77 100 113 147 36 47 74 88 85 92 11 4 151 7
310 7 305 0 380 -8 470 -52 l36 -17 -97 -48 c-53 -26 -121 -63 -151 -83 l-54
-35 -23 24 c-46 50 -72 61 -169 66 -51 2 -119 -1 -152 -7 -74 -14 -187 -67
-270 -126 -181 -129 -315 -367 -284 -503 13 -57 59 -114 114 -141 42 -21 64
-24 140 -24 164 2 290 60 430 198 45 44 98 107 117 140 l34 60 95 6 c151 11
505 10 533 -1 40 -15 35 -57 -14 -119 -89 -112 -311 -231 -432 -231 -42 0 -45
7 -22 56 23 49 106 120 213 183 126 75 124 79 -32 61 -89 -10 -229 -60 -323
-115 -57 -33 -120 -106 -135 -153 -10 -36 -9 -45 8 -79 78 -150 457 -122 765
58 40 23 105 74 145 113 64 64 72 76 79 121 9 64 -14 108 -78 147 -79 49 -151
58 -463 58 -320 0 -313 -4 -158 83 199 110 454 227 560 257 111 31 196 40 159
17 -57 -36 -216 -153 -243 -180 -49 -47 -42 -102 17 -132 48 -25 92 -6 200 86
52 44 113 90 135 101 66 34 151 95 179 128 50 60 22 121 -65 139 -114 25 -336
4 -534 -49 -60 -16 -110 -28 -112 -27 -1 2 -8 20 -15 42 -35 106 -174 134
-660 135 l-158 0 11 24 c26 56 -13 96 -92 96 -51 0 -84 -20 -128 -75 -42 -53
-34 -51 -351 -54 -129 0 -301 -4 -382 -8 -99 -4 -148 -3 -148 4 0 6 27 42 59
81 61 72 87 128 76 161 -14 47 -77 72 -152 61z m1361 -745 c57 -57 -171 -380
-317 -449 -87 -41 -137 -29 -137 32 0 30 59 155 89 189 9 10 37 44 64 75 56
67 130 123 195 149 58 22 86 23 106 4z"/>
    <path d="M5313 3797 c-18 -6 -42 -22 -54 -34 -21 -21 -21 -23 -5 -47 23 -36
77 -56 150 -56 129 0 171 76 70 129 -34 17 -125 22 -161 8z"/>
    <path d="M5950 3649 c-242 -51 -431 -140 -622 -291 -194 -153 -333 -376 -313
-499 21 -125 175 -200 379 -185 99 8 278 45 341 71 153 65 263 132 354 219 68
65 100 121 101 174 0 35 -29 72 -57 72 -9 0 -49 -36 -90 -79 -82 -89 -171
-152 -307 -217 -219 -106 -432 -111 -412 -10 22 111 233 329 445 460 213 131
441 178 441 89 0 -26 -49 -100 -94 -142 -61 -59 -44 -63 65 -18 139 57 219
130 219 200 0 43 -50 103 -109 134 -51 26 -66 28 -176 30 -66 1 -140 -2 -165
-8z"/>
    <path d="M9415 3556 c-183 -59 -367 -208 -496 -400 -109 -163 -96 -331 31
-396 57 -29 154 -39 229 -24 257 53 601 441 601 679 0 47 -4 59 -32 91 -18 21
-51 45 -73 55 -58 27 -171 24 -260 -5z m189 -116 c36 -13 33 -41 -12 -130 -78
-156 -223 -318 -334 -373 -111 -56 -148 -15 -90 100 77 152 287 375 379 403
15 4 29 9 30 9 1 1 13 -3 27 -9z"/>
    <path d="M11789 2847 c-42 -28 -59 -60 -59 -114 0 -33 7 -50 31 -78 108 -123
294 1 224 149 -32 66 -130 88 -196 43z m156 -27 c46 -43 44 -121 -3 -165 -21
-20 -38 -25 -75 -25 -43 0 -54 5 -84 35 -33 33 -35 39 -30 82 4 37 12 54 37
76 29 26 39 29 82 25 32 -4 57 -13 73 -28z"/>
    <path d="M11828 2813 c-15 -4 -18 -16 -18 -74 l0 -70 51 3 c62 4 84 25 56 55
-16 18 -16 20 1 37 16 16 16 18 -7 37 -22 18 -46 22 -83 12z m67 -38 c0 -14
-8 -21 -27 -23 -24 -3 -28 0 -28 23 0 23 4 26 28 23 19 -2 27 -9 27 -23z m-17
-41 c30 -9 27 -48 -5 -52 -23 -3 -49 30 -38 48 7 12 12 12 43 4z"/>
  </g>
</svg>